<mxfile host="65bd71144e">
    <diagram id="bpUySxT-tJ9Alsy62jRv" name="Página-1">
        <mxGraphModel dx="546" dy="1110" grid="1" gridSize="10" guides="1" tooltips="1" connect="1" arrows="1" fold="1" page="1" pageScale="1" pageWidth="850" pageHeight="1100" math="0" shadow="0">
            <root>
                <mxCell id="0"/>
                <mxCell id="1" parent="0"/>
                <mxCell id="3" value="LABORAL" style="rounded=0;whiteSpace=wrap;html=1;fillColor=#d80073;fontColor=#ffffff;strokeColor=#A50040;" parent="1" vertex="1">
                    <mxGeometry x="120" y="220" width="120" height="60" as="geometry"/>
                </mxCell>
                <mxCell id="4" value="PECÚLIO" style="rounded=0;whiteSpace=wrap;html=1;fillColor=#d80073;fontColor=#ffffff;strokeColor=#A50040;" parent="1" vertex="1">
                    <mxGeometry x="20" y="300" width="120" height="60" as="geometry"/>
                </mxCell>
                <mxCell id="6" value="EDUCAÇÃO" style="rounded=0;whiteSpace=wrap;html=1;fillColor=#d80073;fontColor=#ffffff;strokeColor=#A50040;" parent="1" vertex="1">
                    <mxGeometry x="40" y="400" width="120" height="60" as="geometry"/>
                </mxCell>
                <mxCell id="7" value="SAÚDE" style="rounded=0;whiteSpace=wrap;html=1;fillColor=#d80073;fontColor=#ffffff;strokeColor=#A50040;" parent="1" vertex="1">
                    <mxGeometry x="110" y="490" width="120" height="60" as="geometry"/>
                </mxCell>
                <mxCell id="10" style="edgeStyle=none;html=1;" parent="1" source="9" target="3" edge="1">
                    <mxGeometry relative="1" as="geometry"/>
                </mxCell>
                <mxCell id="11" style="edgeStyle=none;html=1;" parent="1" source="9" target="4" edge="1">
                    <mxGeometry relative="1" as="geometry"/>
                </mxCell>
                <mxCell id="12" style="edgeStyle=none;html=1;" parent="1" source="9" target="6" edge="1">
                    <mxGeometry relative="1" as="geometry">
                        <mxPoint x="270.0000000000018" y="420" as="sourcePoint"/>
                    </mxGeometry>
                </mxCell>
                <mxCell id="13" style="edgeStyle=none;html=1;" parent="1" source="9" target="7" edge="1">
                    <mxGeometry relative="1" as="geometry"/>
                </mxCell>
                <mxCell id="21" style="edgeStyle=none;html=1;fontSize=35;" parent="1" source="9" target="15" edge="1">
                    <mxGeometry relative="1" as="geometry"/>
                </mxCell>
                <mxCell id="22" style="edgeStyle=none;html=1;fontSize=35;" parent="1" source="9" target="16" edge="1">
                    <mxGeometry relative="1" as="geometry">
                        <mxPoint x="540" y="360" as="targetPoint"/>
                    </mxGeometry>
                </mxCell>
                <mxCell id="23" style="edgeStyle=none;html=1;fontSize=35;" parent="1" source="9" target="17" edge="1">
                    <mxGeometry relative="1" as="geometry"/>
                </mxCell>
                <mxCell id="24" style="edgeStyle=none;html=1;fontSize=35;" parent="1" source="9" target="18" edge="1">
                    <mxGeometry relative="1" as="geometry"/>
                </mxCell>
                <mxCell id="9" value="UI&lt;br&gt;SuperSagep" style="ellipse;whiteSpace=wrap;html=1;aspect=fixed;fillColor=#0050ef;fontColor=#ffffff;strokeColor=#001DBC;fontSize=35;fontStyle=1" parent="1" vertex="1">
                    <mxGeometry x="270" y="300" width="180" height="180" as="geometry"/>
                </mxCell>
                <mxCell id="15" value="MICROSERVICE&lt;br&gt;SAÚDE" style="rounded=0;whiteSpace=wrap;html=1;fillColor=#60a917;fontColor=#ffffff;strokeColor=#2D7600;" parent="1" vertex="1">
                    <mxGeometry x="620" y="220" width="120" height="60" as="geometry"/>
                </mxCell>
                <mxCell id="16" value="MICROSERVICE&lt;br&gt;EDUCAÇÃO" style="rounded=0;whiteSpace=wrap;html=1;fillColor=#60a917;fontColor=#ffffff;strokeColor=#2D7600;" parent="1" vertex="1">
                    <mxGeometry x="660" y="330" width="120" height="60" as="geometry"/>
                </mxCell>
                <mxCell id="17" value="MICROSERVICE&lt;br&gt;LABORAL" style="rounded=0;whiteSpace=wrap;html=1;fillColor=#60a917;fontColor=#ffffff;strokeColor=#2D7600;" parent="1" vertex="1">
                    <mxGeometry x="660" y="440" width="120" height="60" as="geometry"/>
                </mxCell>
                <mxCell id="18" value="MICROSERVICE&lt;br&gt;PECULIO" style="rounded=0;whiteSpace=wrap;html=1;fillColor=#60a917;fontColor=#ffffff;strokeColor=#2D7600;" parent="1" vertex="1">
                    <mxGeometry x="620" y="530" width="120" height="60" as="geometry"/>
                </mxCell>
                <mxCell id="25" value="GATWAY" style="rounded=0;whiteSpace=wrap;html=1;fontSize=35;" parent="1" vertex="1">
                    <mxGeometry x="500" y="220" width="70" height="350" as="geometry"/>
                </mxCell>
            </root>
        </mxGraphModel>
    </diagram>
    <diagram id="NE32P8JkKlTcE--eiLKt" name="Controle versão">
        <mxGraphModel dx="758" dy="1110" grid="1" gridSize="10" guides="1" tooltips="1" connect="1" arrows="1" fold="1" page="1" pageScale="1" pageWidth="850" pageHeight="1100" math="0" shadow="0">
            <root>
                <mxCell id="0"/>
                <mxCell id="1" parent="0"/>
                <mxCell id="td6KHNSinaLsDBIIcACX-5" style="edgeStyle=none;html=1;" edge="1" parent="1" source="td6KHNSinaLsDBIIcACX-2" target="td6KHNSinaLsDBIIcACX-4">
                    <mxGeometry relative="1" as="geometry"/>
                </mxCell>
                <mxCell id="td6KHNSinaLsDBIIcACX-7" style="edgeStyle=none;html=1;" edge="1" parent="1" source="td6KHNSinaLsDBIIcACX-2" target="td6KHNSinaLsDBIIcACX-3">
                    <mxGeometry relative="1" as="geometry"/>
                </mxCell>
                <mxCell id="td6KHNSinaLsDBIIcACX-2" value="git hub&lt;br&gt;(REPOSITÓRIO REMOTO)" style="ellipse;whiteSpace=wrap;html=1;" vertex="1" parent="1">
                    <mxGeometry x="500" y="370" width="120" height="80" as="geometry"/>
                </mxCell>
                <mxCell id="td6KHNSinaLsDBIIcACX-8" style="edgeStyle=none;html=1;" edge="1" parent="1" source="td6KHNSinaLsDBIIcACX-3" target="td6KHNSinaLsDBIIcACX-6">
                    <mxGeometry relative="1" as="geometry"/>
                </mxCell>
                <mxCell id="td6KHNSinaLsDBIIcACX-15" style="edgeStyle=none;html=1;" edge="1" parent="1" source="td6KHNSinaLsDBIIcACX-3" target="td6KHNSinaLsDBIIcACX-14">
                    <mxGeometry relative="1" as="geometry"/>
                </mxCell>
                <mxCell id="td6KHNSinaLsDBIIcACX-3" value="git hub&lt;br&gt;(REPOSITÓRIO LOCAL)" style="ellipse;whiteSpace=wrap;html=1;" vertex="1" parent="1">
                    <mxGeometry x="60" y="370" width="120" height="80" as="geometry"/>
                </mxCell>
                <mxCell id="td6KHNSinaLsDBIIcACX-4" value="Teste.cs&lt;br&gt;- 1 linha" style="rounded=1;whiteSpace=wrap;html=1;" vertex="1" parent="1">
                    <mxGeometry x="500" y="240" width="120" height="60" as="geometry"/>
                </mxCell>
                <mxCell id="td6KHNSinaLsDBIIcACX-9" style="edgeStyle=none;html=1;startArrow=none;" edge="1" parent="1" source="td6KHNSinaLsDBIIcACX-10" target="td6KHNSinaLsDBIIcACX-4">
                    <mxGeometry relative="1" as="geometry"/>
                </mxCell>
                <mxCell id="td6KHNSinaLsDBIIcACX-6" value="Teste.cs&lt;br&gt;- 2 linha" style="rounded=1;whiteSpace=wrap;html=1;" vertex="1" parent="1">
                    <mxGeometry x="60" y="240" width="120" height="60" as="geometry"/>
                </mxCell>
                <mxCell id="td6KHNSinaLsDBIIcACX-12" style="edgeStyle=none;html=1;" edge="1" parent="1" source="td6KHNSinaLsDBIIcACX-10" target="td6KHNSinaLsDBIIcACX-6">
                    <mxGeometry relative="1" as="geometry"/>
                </mxCell>
                <mxCell id="td6KHNSinaLsDBIIcACX-10" value="comparação" style="rounded=1;whiteSpace=wrap;html=1;fillColor=#008a00;fontColor=#ffffff;strokeColor=#005700;" vertex="1" parent="1">
                    <mxGeometry x="270" y="240" width="120" height="60" as="geometry"/>
                </mxCell>
                <mxCell id="td6KHNSinaLsDBIIcACX-14" value="commit local" style="rhombus;whiteSpace=wrap;html=1;fillColor=#a20025;fontColor=#ffffff;strokeColor=#6F0000;" vertex="1" parent="1">
                    <mxGeometry x="80" y="550" width="80" height="80" as="geometry"/>
                </mxCell>
            </root>
        </mxGraphModel>
    </diagram>
</mxfile>